<svg xmlns="http://www.w3.org/2000/svg" viewBox="0 0 64 64" width="64" height="64">
  <defs>
    <linearGradient id="bg" x1="0%" y1="0%" x2="100%" y2="100%">
      <stop offset="0%" stop-color="#0f3460"/>
      <stop offset="100%" stop-color="#16213e"/>
    </linearGradient>
    <linearGradient id="lock" x1="0%" y1="0%" x2="0%" y2="100%">
      <stop offset="0%" stop-color="#00d2ff"/>
      <stop offset="100%" stop-color="#0984e3"/>
    </linearGradient>
  </defs>
  <rect width="64" height="64" rx="14" fill="url(#bg)"/>
  <!-- Lock body -->
  <rect x="20" y="30" width="24" height="20" rx="3" fill="url(#lock)"/>
  <!-- Lock shackle -->
  <path d="M24 30 V24 A8 8 0 0 1 40 24 V30" fill="none" stroke="url(#lock)" stroke-width="3.5" stroke-linecap="round"/>
  <!-- Keyhole -->
  <circle cx="32" cy="39" r="3" fill="#1a1a2e"/>
  <rect x="31" y="41" width="2" height="5" rx="1" fill="#1a1a2e"/>
  <!-- SSL arrows -->
  <path d="M12 18 L18 14 L18 16 L26 16 L26 20 L18 20 L18 22 Z" fill="#00d2ff" opacity="0.7"/>
  <path d="M52 46 L46 42 L46 44 L38 44 L38 48 L46 48 L46 50 Z" fill="#00d2ff" opacity="0.7"/>
</svg>
